<?xml version="1.0" encoding="UTF-8"?>
<svg width="24px" height="24px" viewBox="0 0 24 24" version="1.1" xmlns="http://www.w3.org/2000/svg">
    <g stroke="none" stroke-width="1" fill="none" fill-rule="evenodd">
        <circle fill="#ECA5EB" cx="12" cy="12" r="12"/>
        <path d="M12,5 C14.209,5 16,6.791 16,9 C16,10.294 15.383,11.437 14.412,12.156 C16.783,13.03 18.5,15.344 18.5,18 L18.5,19 L5.5,19 L5.5,18 C5.5,15.344 7.217,13.03 9.588,12.156 C8.617,11.437 8,10.294 8,9 C8,6.791 9.791,5 12,5 Z M12,7 C10.895,7 10,7.895 10,9 C10,10.105 10.895,11 12,11 C13.105,11 14,10.105 14,9 C14,7.895 13.105,7 12,7 Z M12,13 C9.739,13 7.8,14.791 7.53,17 L16.47,17 C16.2,14.791 14.261,13 12,13 Z" fill="#000000" fill-rule="nonzero"/>
    </g>
</svg>
