<svg viewBox="0 0 24 24" fill="none" xmlns="http://www.w3.org/2000/svg">
  <!-- Open globe/world symbol -->
  <circle cx="12" cy="12" r="10" stroke="white" stroke-width="2" fill="none"/>
  <!-- Latitude lines -->
  <path d="M2 12h20" stroke="white" stroke-width="1.5"/>
  <path d="M2 12c0-2.5 4.5-4.5 10-4.5s10 2 10 4.5" stroke="white" stroke-width="1" fill="none"/>
  <path d="M2 12c0 2.5 4.5 4.5 10 4.5s10-2 10-4.5" stroke="white" stroke-width="1" fill="none"/>
  <!-- Longitude line -->
  <path d="M12 2c-2.5 0-4.5 4.5-4.5 10s2 10 4.5 10" stroke="white" stroke-width="1" fill="none"/>
  <path d="M12 2c2.5 0 4.5 4.5 4.5 10s-2 10-4.5 10" stroke="white" stroke-width="1" fill="none"/>
  <!-- Small dots representing open access -->
  <circle cx="8" cy="8" r="1" fill="white"/>
  <circle cx="16" cy="8" r="1" fill="white"/>
  <circle cx="8" cy="16" r="1" fill="white"/>
  <circle cx="16" cy="16" r="1" fill="white"/>
</svg>
