<?xml version="1.0" encoding="UTF-8"?>
<svg width="24px" height="24px" viewBox="0 0 24 24" version="1.1" xmlns="http://www.w3.org/2000/svg">
    <g stroke="none" stroke-width="1" fill="none" fill-rule="evenodd">
        <circle fill="#FFD87D" cx="12" cy="12" r="12"/>
        <path d="M14.5,5 L18,8.5 L18,15.5 L14.5,19 L9.5,19 L6,15.5 L6,8.5 L9.5,5 L14.5,5 Z M13.5,7 L10.5,7 L8,9.5 L8,14.5 L10.5,17 L13.5,17 L16,14.5 L16,9.5 L13.5,7 Z M12,9 C13.105,9 14,9.895 14,11 L14,13 L10,13 L10,11 C10,9.895 10.895,9 12,9 Z M12,14 C12.552,14 13,14.448 13,15 C13,15.552 12.552,16 12,16 C11.448,16 11,15.552 11,15 C11,14.448 11.448,14 12,14 Z" fill="#000000" fill-rule="nonzero"/>
    </g>
</svg>
