<?xml version="1.0" encoding="UTF-8"?>
<svg width="16px" height="16px" viewBox="0 0 16 16" version="1.1" xmlns="http://www.w3.org/2000/svg">
    <g stroke="none" stroke-width="1" fill="none" fill-rule="evenodd">
        <path d="M8,2 C8.55228,2 9,2.44772 9,3 L9,7 L13,7 C13.5523,7 14,7.44772 14,8 C14,8.55228 13.5523,9 13,9 L9,9 L9,13 C9,13.5523 8.55228,14 8,14 C7.44772,14 7,13.5523 7,13 L7,9 L3,9 C2.44772,9 2,8.55228 2,8 C2,7.44772 2.44772,7 3,7 L7,7 L7,3 C7,2.44772 7.44772,2 8,2 Z" fill="#000000" fill-rule="nonzero"/>
    </g>
</svg>
