<?xml version="1.0" encoding="UTF-8"?>
<svg width="24px" height="24px" viewBox="0 0 24 24" version="1.1" xmlns="http://www.w3.org/2000/svg">
    <g stroke="none" stroke-width="1" fill="none" fill-rule="evenodd">
        <circle fill="#89DCEB" cx="12" cy="12" r="12"/>
        <path d="M17,7 C18.1046,7 19,7.89543 19,9 L19,15 C19,16.1046 18.1046,17 17,17 L7,17 C5.89543,17 5,16.1046 5,15 L5,9 C5,7.89543 5.89543,7 7,7 L17,7 Z M17,9 L7,9 L7,15 L17,15 L17,9 Z M16,11 C16.5523,11 17,11.4477 17,12 C17,12.5523 16.5523,13 16,13 C15.4477,13 15,12.5523 15,12 C15,11.4477 15.4477,11 16,11 Z" fill="#000000" fill-rule="nonzero"/>
    </g>
</svg>
