<svg xmlns="http://www.w3.org/2000/svg" width="172" height="173" viewBox="0 0 172 173" fill="none">
  <g filter="url(#filter0_d_285_1658)">
    <path fill-rule="evenodd" clip-rule="evenodd" d="M111.018 34.8528C91.8958 27.2037 69.255 29.6106 52.8976 41.2191L111.018 34.8528ZM52.8966 41.2198L111.018 34.8528C113.258 35.7486 115.8 34.6593 116.696 32.4197C117.592 30.1801 116.502 27.6383 114.263 26.7425C88.5404 16.4536 56.8741 22.0066 37.943 42.8572L52.8976 41.2191C52.8973 41.2194 52.897 41.2196 52.8966 41.2198ZM52.8966 41.2198L37.9422 42.858C28.7569 52.9703 22.996 65.7226 21.4798 79.2994C19.9635 92.8765 22.7693 106.586 29.4978 118.476C36.2263 130.365 46.5345 139.829 58.9545 145.52C71.3745 151.21 85.2733 152.837 98.6717 150.169C126.396 144.654 145.72 120.169 150.829 94.6229C151.303 92.2576 149.769 89.9567 147.403 89.4837C145.038 89.0106 142.737 90.5445 142.264 92.9098C137.686 115.801 120.489 136.924 96.9668 141.601L96.9656 141.602C85.3701 143.911 73.3417 142.503 62.5929 137.578C51.8441 132.654 42.9231 124.463 37.1 114.173C31.2769 103.884 28.8486 92.0191 30.1608 80.2689C31.4731 68.5187 36.4591 57.4821 44.4087 48.7305L44.4095 48.7297C46.9735 45.9055 49.8242 43.4004 52.8966 41.2198ZM149.756 48.2908C151.392 46.5183 151.282 43.7552 149.509 42.1191C147.737 40.483 144.974 40.5935 143.338 42.366L88.296 101.994L67.2915 80.9901C65.5859 79.2844 62.8205 79.2844 61.1149 80.9901C59.4093 82.6957 59.4093 85.461 61.1149 87.1667L85.3337 111.385C86.1741 112.226 87.3209 112.688 88.5093 112.664C89.6977 112.64 90.825 112.133 91.6312 111.26L149.756 48.2908Z" fill="url(#paint0_linear_285_1658)"/>
  </g>
  <defs>
    <filter id="filter0_d_285_1658" x="-12.4" y="-11.9" width="196.8" height="196.8" filterUnits="userSpaceOnUse" color-interpolation-filters="sRGB">
      <feFlood flood-opacity="0" result="BackgroundImageFix"/>
      <feColorMatrix in="SourceAlpha" type="matrix" values="0 0 0 0 0 0 0 0 0 0 0 0 0 0 0 0 0 0 127 0" result="hardAlpha"/>
      <feOffset/>
      <feGaussianBlur stdDeviation="10.45"/>
      <feComposite in2="hardAlpha" operator="out"/>
      <feColorMatrix type="matrix" values="0 0 0 0 1 0 0 0 0 1 0 0 0 0 1 0 0 0 0.18 0"/>
      <feBlend mode="normal" in2="BackgroundImageFix" result="effect1_dropShadow_285_1658"/>
      <feBlend mode="normal" in="SourceGraphic" in2="effect1_dropShadow_285_1658" result="shape"/>
    </filter>
    <linearGradient id="paint0_linear_285_1658" x1="150.915" y1="126.819" x2="80.4309" y2="12.0753" gradientUnits="userSpaceOnUse">
      <stop stop-color="#C65EC6"/>
      <stop offset="1" stop-color="#7F58B7"/>
    </linearGradient>
  </defs>
</svg>