<svg xmlns="http://www.w3.org/2000/svg" width="93" height="94" viewBox="0 0 93 94" fill="none">
  <path d="M75.2908 15.3302H17.7093C16.1192 15.3302 14.8302 16.6192 14.8302 18.2092V75.7908C14.8302 77.3808 16.1192 78.6698 17.7093 78.6698H75.2908C76.8809 78.6698 78.1699 77.3808 78.1699 75.7908V18.2092C78.1699 16.6192 76.8809 15.3302 75.2908 15.3302Z" stroke="#242527" stroke-width="4.31861" stroke-linecap="round" stroke-linejoin="round"/>
  <path d="M78.1699 58.5164L62.9468 43.2932C62.6789 43.0212 62.3595 42.8052 62.0074 42.6577C61.6552 42.5103 61.2772 42.4343 60.8954 42.4343C60.5136 42.4343 60.1356 42.5103 59.7835 42.6577C59.4313 42.8052 59.112 43.0212 58.8441 43.2932L42.7932 59.3441C42.5253 59.6161 42.206 59.8321 41.8538 59.9796C41.5017 60.1271 41.1237 60.203 40.7419 60.203C40.3601 60.203 39.9821 60.1271 39.6299 59.9796C39.2778 59.8321 38.9584 59.6161 38.6905 59.3441L31.2769 51.9305C31.009 51.6584 30.6897 51.4424 30.3375 51.2949C29.9854 51.1475 29.6074 51.0716 29.2256 51.0716C28.8438 51.0716 28.4658 51.1475 28.1136 51.2949C27.7615 51.4424 27.4421 51.6584 27.1742 51.9305L14.8302 64.2745" stroke="#242527" stroke-width="4.31861" stroke-linecap="round" stroke-linejoin="round"/>
  <path d="M36.4232 37.643C38.4108 37.643 40.0221 36.0317 40.0221 34.0442C40.0221 32.0566 38.4108 30.4453 36.4232 30.4453C34.4357 30.4453 32.8244 32.0566 32.8244 34.0442C32.8244 36.0317 34.4357 37.643 36.4232 37.643Z" fill="#242527"/>
</svg>