<svg xmlns="http://www.w3.org/2000/svg" width="24" height="24" viewBox="0 0 24 24" fill="none">
  <path fill-rule="evenodd" clip-rule="evenodd" d="M19.7769 4.43003C20.024 4.32602 20.2945 4.29015 20.5602 4.32614C20.8259 4.36214 21.0771 4.46869 21.2876 4.63471C21.4981 4.80073 21.6603 5.02014 21.7573 5.27011C21.8542 5.52008 21.8824 5.79147 21.8389 6.05603L19.5709 19.813C19.3509 21.14 17.8949 21.901 16.6779 21.24C15.6599 20.687 14.1479 19.835 12.7879 18.946C12.1079 18.501 10.0249 17.076 10.2809 16.062C10.5009 15.195 14.0009 11.937 16.0009 10C16.7859 9.23903 16.4279 8.80003 15.5009 9.50003C13.1989 11.238 9.5029 13.881 8.2809 14.625C7.2029 15.281 6.6409 15.393 5.9689 15.281C4.7429 15.077 3.6059 14.761 2.6779 14.376C1.4239 13.856 1.4849 12.132 2.6769 11.63L19.7769 4.43003Z" fill="white"/>
</svg>