<svg xmlns="http://www.w3.org/2000/svg" width="21" height="21" viewBox="0 0 21 21" fill="none">
  <path d="M19.8736 18.8062L15.4248 14.2066C16.4959 12.7324 17.0741 10.9381 17.0721 9.0943C17.0721 4.38478 13.3662 0.553223 8.81109 0.553223C4.25598 0.553223 0.550049 4.38478 0.550049 9.0943C0.550049 13.8038 4.25598 17.6354 8.81109 17.6354C10.5944 17.6374 12.33 17.0396 13.7558 15.9322L18.2045 20.5318C18.4297 20.7399 18.7234 20.851 19.0254 20.8423C19.3273 20.8335 19.6145 20.7056 19.8281 20.4848C20.0417 20.264 20.1654 19.967 20.1739 19.6548C20.1823 19.3427 20.0749 19.039 19.8736 18.8062ZM2.91035 9.0943C2.91035 7.88768 3.25642 6.70816 3.9048 5.70489C4.55318 4.70163 5.47475 3.91968 6.55297 3.45792C7.63119 2.99617 8.81764 2.87536 9.96227 3.11076C11.1069 3.34615 12.1583 3.9272 12.9835 4.7804C13.8088 5.63361 14.3708 6.72066 14.5985 7.9041C14.8261 9.08753 14.7093 10.3142 14.2627 11.429C13.8161 12.5437 13.0597 13.4965 12.0894 14.1669C11.119 14.8373 9.97815 15.1951 8.81109 15.1951C7.24669 15.1931 5.74691 14.5497 4.64071 13.4061C3.53451 12.2624 2.91222 10.7117 2.91035 9.0943Z" fill="white"/>
</svg>