<svg xmlns="http://www.w3.org/2000/svg" width="29" height="28" viewBox="0 0 29 28" fill="none">
  <rect x="0.813721" y="0.0771484" width="27.6364" height="27.2416" rx="3.94806" fill="#272B34" fill-opacity="0.2"/>
  <path d="M13.78 13.6985H10.4795M21.0724 13.3239C21.1426 13.358 21.2018 13.4113 21.2432 13.4775C21.2846 13.5437 21.3065 13.6203 21.3064 13.6984C21.3064 13.7765 21.2843 13.853 21.2429 13.9191C21.2014 13.9853 21.1421 14.0384 21.0719 14.0725L8.50034 20.1267C8.42517 20.1629 8.34086 20.1756 8.25836 20.1633C8.17586 20.151 8.09896 20.1141 8.03765 20.0576C7.97634 20.001 7.93345 19.9273 7.91453 19.8461C7.89561 19.7648 7.90154 19.6798 7.93155 19.6019L10.1445 13.8475C10.1814 13.7516 10.1814 13.6454 10.1445 13.5494L7.9321 7.79445C7.90235 7.71671 7.8966 7.63183 7.91558 7.55079C7.93457 7.46974 7.97742 7.39625 8.0386 7.33981C8.09978 7.28337 8.17648 7.24657 8.25879 7.23416C8.3411 7.22176 8.42524 7.23432 8.50034 7.27023L21.0724 13.3239Z" stroke="white" stroke-width="1.33046" stroke-linecap="round" stroke-linejoin="round"/>
</svg>